<svg xmlns="http://www.w3.org/2000/svg" viewBox="0 0 309 92" height="92" width="309" style="width: 309px; height: 92px; position: absolute; top: 50%; left: 50%; transform: translate(-50%, -50%) scale(0.621197); z-index: 0; cursor: pointer;"><defs id="SvgjsDefs1036"/><g id="SvgjsG1037" featurekey="symbolFeature-0" transform="matrix(1.5,0,0,1.5,15.40092420578003,17)" fill="#3f72af"><g xmlns="http://www.w3.org/2000/svg"><path d="M48.933773,43.25c0.0099487,0.9299927-0.4000244,1.8099976-1.1300049,2.4100342   c-1.3000488,1.0599976-4.2700195,2.8999634-9.0800171,2.6199951c-0.210022,0-0.3400269,0.0100098-0.4500122,0.0599976   C36.9237633,48.8400269,33.3337364,50,29.103756,50c-2,0-3.8900146-0.2699585-5.6199951-0.789978   c-0.2600098-0.0800171-0.5100098-0.1900024-0.7600098-0.3499756c-0.5200195-0.3200073-2.4299927-1.3800049-5.25-1.3800049   c-0.6500244,0-1.3200073,0.0599976-1.9799805,0.1699829c-0.0599976,0.0100098-0.5200195,0.0599976-1.2300415,0.0599976   c-2.6900024,0-9.1399536-0.75-10.8800049-7.710022c-0.0299683-0.0999756-1.0799561-3.6799927,0.8099978-6.8999634   C5.4637413,30.9400024,7.7137413,29.5,10.8737755,28.8099976c0,0,1.0199585-0.3099976,2.5999756-0.3099976   c2.1799927,0,5.4199829,0.5900269,8.460022,3.3900146c0.2799683,0.2600098,0.6900024,0.3599854,1.039978,0.25   c0.75-0.2299805,1.9500122-0.5100098,3.3599854-0.5100098c2.1799927,0,4.2299805,0.6300049,6.0900269,1.8699951   c0.0199585,0.0100098,0.0899658,0,0.0999756-0.0599976l0.7299805-10.2600098c0.0200195-0.1499634,0-0.289978-0.0499878-0.4299927   l-2.9799805-6.1900024c-0.0200195-0.0499878-0.039978-0.0999756-0.0599976-0.1599731   c-0.0599976-0.2000122-0.2800293-0.5999756-0.4700317-0.5999756c-0.039978,0-0.1799927,0.0099487-0.4099731,0.1499634   c-0.2800293,0.1699829-0.7200317,0.4100342-1.25,0.4799805c-0.2200317,0.0300293-0.4799805,0.0600586-0.789978,0.0600586   c-0.9200439,0-1.9200439-0.2000122-2.9700317-0.5900269c-0.0800171-0.0300293-0.1499634-0.0499878-0.2000122-0.0599976   c-0.0899658-0.0100098-0.2099609-0.039978-0.3499756-0.0700073c-0.4799805-0.0999756-1.2000122-0.2000122-1.5300293,0   c-0.7699585,0.4500122-1.7099609,0.6799927-2.7699585,0.6799927c-0.7700195,0-1.5700073-0.1300049-2.2700195-0.3399658   c-0.7000122-0.2200317-1.2999878-0.5200195-1.6699829-0.8800049c-0.5100098-0.4800415-0.7000122-1.1400146-0.5599976-1.8699951   c0.1900024-1.0100098,0.9899902-2.0100098,1.8899536-2.3800049c0.3000488-0.1199951,0.6600342-0.2700195,1.0400391-0.4200439   C16.683773,9.5,15.5137291,7.9700317,16.4237633,6.6199951c0.0700073-0.1099854,0.1699829-0.2099609,0.2799683-0.2799683   C16.7137413,6.3300171,18.1937218,5.3500366,19.1337242,3.75C19.5437584,3.0900269,20.683773,2,22.4437218,2   c0.6800537,0,1.3900146,0.1600342,2.1199951,0.4800415c1.0600586,0.2600098,7.2000122,1.8399658,9.4200439,3.9699707   c0.7999878,0.8599854,3.2099609,3.6000366,3.3800049,5.3599854c0.7399902,2.3800049,2.2399902,6.3900146,3.2299805,7.4100342   c0.1500244,0.1499634,0.2700195,0.289978,0.3800049,0.4599609c1.1799927,1.8100586,5.0599976,7.9200439,5.5999756,10.9400024   C46.8337364,31.4299927,48.853756,37.7000122,48.933773,43.25z"/></g></g><g id="SvgjsG1038" featurekey="nameFeature-0" transform="matrix(0.6129583602465976,0,0,0.6129583602465976,107.24896217917097,20.99516945489019)" fill="#3f72af"><path d="M28.571 15.713999999999999 l0 10 l-4.2857 4.2857 l4.2857 6.5714 l0 3.4286 l-6.8571 0 l-5.9429 -9.7143 l-5.4857 0 l0 9.7143 l-7.4286 0 l0 -28.571 l21.429 0 z M21.143 24 l0 -6.2857 l-10.857 0 l0 6.2857 l10.857 0 z M34.285671428571426 35.7143 l0 -24.286 l7.4286 0 l0 22.286 l10.286 0 l0 -22.286 l7.4286 0 l0 24.286 l-4.2857 4.2857 l-16.571 0 z M90.85671428571429 15.713999999999999 l0 6.9714 l-3.0286 3.0286 l3.0286 3.0286 l0 6.9714 l-4.2857 4.2857 l-21.429 0 l0 -28.571 l21.429 0 z M83.42871428571428 22.571 l0 -4.8571 l-10.857 0 l0 4.8571 l10.857 0 z M83.42871428571428 33.7143 l0 -4.8571 l-10.857 0 l0 4.8571 l10.857 0 z M122.00028571428571 11.428999999999998 l0 3.4286 l-9.7143 15.714 l0 9.4286 l-7.4286 0 l0 -9.4857 l-9.7143 -15.657 l0 -3.4286 l6.5714 0 l6.8571 11.657 l6.8571 -11.657 l6.5714 0 z M164.8572857142857 17.714 l-16.857 0 l0 4.8571 l14.571 0 l0 6.2857 l-14.571 0 l0 11.143 l-7.4286 0 l0 -24.286 l4.2857 -4.2857 l20 0 l0 6.2857 z M168.28571428571428 40 l0 -5.7143 l2.2857 0 l0 -17.143 l-2.2857 0 l0 -5.7143 l12 0 l0 5.7143 l-2.2857 0 l0 17.143 l2.2857 0 l0 5.7143 l-12 0 z M183.14285428571426 17.714 l0 -6.2857 l24.286 0 l0 6.2857 l-8.4571 0 l0 22.286 l-7.4286 0 l0 -22.286 l-8.4 0 z M228.85671428571428 11.428999999999998 l7.4286 0 l0 28.571 l-6.5714 0 l-11.143 -16 l0 16 l-7.4286 0 l0 -28.571 l6.5714 0 l11.143 15.886 l0 -15.886 z M266.28585714285714 17.714 l-16.857 0 l0 4.8571 l14.571 0 l0 6.2857 l-14.571 0 l0 4.8571 l16.857 0 l0 6.2857 l-20 0 l-4.2857 -4.2857 l0 -24.286 l24.286 0 l0 6.2857 z M289.9998571428571 17.714 l-10.571 0 l0 4.8571 l14 0 l4.2857 4.2857 l0 8.8571 l-4.2857 4.2857 l-17.143 0 l-4.2857 -4.2857 l0 -4.2857 l5.4286 0 l2.2857 2.2857 l10.571 0 l0 -4.8571 l-14 0 l-4.2857 -4.2857 l0 -8.8571 l4.2857 -4.2857 l17.143 0 l4.2857 4.2857 l0 4.2857 l-5.4286 0 z M321.4284285714285 17.714 l-10.571 0 l0 4.8571 l14 0 l4.2857 4.2857 l0 8.8571 l-4.2857 4.2857 l-17.143 0 l-4.2857 -4.2857 l0 -4.2857 l5.4286 0 l2.2857 2.2857 l10.571 0 l0 -4.8571 l-14 0 l-4.2857 -4.2857 l0 -8.8571 l4.2857 -4.2857 l17.143 0 l4.2857 4.2857 l0 4.2857 l-5.4286 0 z"/></g><g id="SvgjsG1039" featurekey="nameFeature-1" transform="matrix(1.0278953217478142,0,0,1.0278953217478142,106.0638168605041,44.253308847834525)" fill="#3f72af"><path d="M2.8571 40 l0 -28.571 l20.857 0 l4.2857 4.2857 l0 12 l-4.2857 4.2857 l-13.429 0 l0 8 l-7.4286 0 z M10.286 25.714 l10.286 0 l0 -8 l-10.286 0 l0 8 z M59.42814285714286 15.713999999999999 l0 10 l-4.2857 4.2857 l4.2857 6.5714 l0 3.4286 l-6.8571 0 l-5.9429 -9.7143 l-5.4857 0 l0 9.7143 l-7.4286 0 l0 -28.571 l21.429 0 z M52.00014285714286 24 l0 -6.2857 l-10.857 0 l0 6.2857 l10.857 0 z M85.99971428571428 11.428999999999998 l4.2857 4.2857 l0 20 l-4.2857 4.2857 l-16.571 0 l-4.2857 -4.2857 l0 -20 l4.2857 -4.2857 l16.571 0 z M82.85671428571429 33.7143 l0 -16 l-10.286 0 l0 16 l10.286 0 z M109.42885714285714 35.7143 l-4.2857 4.2857 l-10.571 0 l0 -6.2857 l7.4286 0 l0 -22.286 l7.4286 0 l0 24.286 z M139.42871428571428 17.714 l-16.857 0 l0 4.8571 l14.571 0 l0 6.2857 l-14.571 0 l0 4.8571 l16.857 0 l0 6.2857 l-20 0 l-4.2857 -4.2857 l0 -24.286 l24.286 0 l0 6.2857 z M161.71471428571428 17.714 l-9.1429 0 l0 16 l9.1429 0 l2.2857 -2.2857 l5.4286 0 l0 4.2857 l-4.2857 4.2857 l-15.714 0 l-4.2857 -4.2857 l0 -20 l4.2857 -4.2857 l15.714 0 l4.2857 4.2857 l0 4.2857 l-5.4286 0 z M173.14285428571426 17.714 l0 -6.2857 l24.286 0 l0 6.2857 l-8.4571 0 l0 22.286 l-7.4286 0 l0 -22.286 l-8.4 0 z"/></g></svg>